#N canvas 895 443 834 595 12;
#X obj 208 366 vsl 15 128 0 6000 0 0 fullspd fsk empty 0 -9 0 10 -262144
-1 -1 1100 1;
#X floatatom 227 480 5 0 0 0 - fullspd -, f 5;
#X obj 286 366 vsl 15 128 1 4 0 0 scale sk empty 0 -9 0 10 -262144
-1 -1 3900 1;
#X obj 179 214 nbx 5 42 -1e+37 1e+37 0 0 empty empty empty 0 -8 0 33
-262144 -1 -1 0.386827 256 0;
#N canvas 239 65 817 396 processing 0;
#X obj 85 367 sendOSC;
#X msg 19 418 connect localhost 8000;
#X floatatom 85 390 5 0 0 0 - - -, f 5;
#X obj 19 390 loadbang;
#X floatatom 65 270 5 0 0 0 - - -, f 5;
#X msg 52 337 ];
#X msg 196 336 [;
#X obj 65 295 t b f b;
#X obj 309 366 sendOSC;
#X msg 243 417 connect localhost 8000;
#X floatatom 309 389 5 0 0 0 - - -, f 5;
#X obj 243 389 loadbang;
#X floatatom 289 269 5 0 0 0 - - -, f 5;
#X msg 276 336 ];
#X msg 416 335 [;
#X obj 289 294 t b f b;
#X obj 533 366 sendOSC;
#X msg 467 417 connect localhost 8000;
#X floatatom 533 389 5 0 0 0 - - -, f 5;
#X obj 467 389 loadbang;
#X floatatom 513 269 5 0 0 0 - - -, f 5;
#X msg 500 336 ];
#X msg 640 335 [;
#X obj 513 294 t b f b;
#X msg 532 335 send /env3 \$1;
#X msg 308 335 send /env2 \$1;
#X msg 84 336 send /env1 \$1;
#X obj 65 240 r xx;
#X obj 289 239 r yy;
#X obj 513 239 r zz;
#X obj 20 6 r fulld;
#X obj 246 6 r lod;
#X obj 495 6 r hid;
#X floatatom 20 32 5 0 0 0 - - -, f 5;
#X floatatom 246 32 5 0 0 0 - - -, f 5;
#X floatatom 495 32 5 0 0 0 - - -, f 5;
#X obj 19 178 s xx;
#X obj 72 178 s yy;
#X obj 127 178 s zz;
#X obj 84 85 == 1;
#X obj 138 85 == 2;
#X obj 122 49 r datarot;
#X obj 31 85 == 0;
#X floatatom 31 115 5 0 0 0 - - -, f 5;
#X floatatom 84 115 5 0 0 0 - - -, f 5;
#X floatatom 138 114 5 0 0 0 - - -, f 5;
#X obj 19 145 spigot;
#X obj 72 145 spigot;
#X obj 127 145 spigot;
#X obj 246 178 s xx;
#X obj 299 178 s yy;
#X obj 354 178 s zz;
#X obj 349 49 r datarot;
#X floatatom 258 115 5 0 0 0 - - -, f 5;
#X floatatom 311 115 5 0 0 0 - - -, f 5;
#X floatatom 365 114 5 0 0 0 - - -, f 5;
#X obj 246 145 spigot;
#X obj 299 145 spigot;
#X obj 354 145 spigot;
#X obj 258 85 == 2;
#X obj 311 85 == 0;
#X obj 365 85 == 1;
#X obj 496 178 s xx;
#X obj 549 178 s yy;
#X obj 604 178 s zz;
#X obj 599 49 r datarot;
#X floatatom 508 115 5 0 0 0 - - -, f 5;
#X floatatom 561 115 5 0 0 0 - - -, f 5;
#X floatatom 615 114 5 0 0 0 - - -, f 5;
#X obj 496 145 spigot;
#X obj 549 145 spigot;
#X obj 604 145 spigot;
#X obj 615 85 == 0;
#X obj 508 85 == 1;
#X obj 561 85 == 2;
#X obj 751 18 r rotator;
#X obj 751 44 int;
#X floatatom 751 69 5 0 0 0 - - -, f 5;
#X obj 751 93 s datarot;
#X connect 0 0 2 0;
#X connect 1 0 0 0;
#X connect 3 0 1 0;
#X connect 4 0 7 0;
#X connect 5 0 0 0;
#X connect 6 0 0 0;
#X connect 7 0 5 0;
#X connect 7 1 26 0;
#X connect 7 2 6 0;
#X connect 8 0 10 0;
#X connect 9 0 8 0;
#X connect 11 0 9 0;
#X connect 12 0 15 0;
#X connect 13 0 8 0;
#X connect 14 0 8 0;
#X connect 15 0 13 0;
#X connect 15 1 25 0;
#X connect 15 2 14 0;
#X connect 16 0 18 0;
#X connect 17 0 16 0;
#X connect 19 0 17 0;
#X connect 20 0 23 0;
#X connect 21 0 16 0;
#X connect 22 0 16 0;
#X connect 23 0 21 0;
#X connect 23 1 24 0;
#X connect 23 2 22 0;
#X connect 24 0 16 0;
#X connect 25 0 8 0;
#X connect 26 0 0 0;
#X connect 27 0 4 0;
#X connect 28 0 12 0;
#X connect 29 0 20 0;
#X connect 30 0 33 0;
#X connect 31 0 34 0;
#X connect 32 0 35 0;
#X connect 33 0 46 0;
#X connect 33 0 47 0;
#X connect 33 0 48 0;
#X connect 34 0 56 0;
#X connect 34 0 57 0;
#X connect 34 0 58 0;
#X connect 35 0 69 0;
#X connect 35 0 70 0;
#X connect 35 0 71 0;
#X connect 39 0 44 0;
#X connect 40 0 45 0;
#X connect 41 0 42 0;
#X connect 41 0 39 0;
#X connect 41 0 40 0;
#X connect 42 0 43 0;
#X connect 43 0 46 1;
#X connect 44 0 47 1;
#X connect 45 0 48 1;
#X connect 46 0 36 0;
#X connect 47 0 37 0;
#X connect 48 0 38 0;
#X connect 52 0 59 0;
#X connect 52 0 60 0;
#X connect 52 0 61 0;
#X connect 53 0 56 1;
#X connect 54 0 57 1;
#X connect 55 0 58 1;
#X connect 56 0 49 0;
#X connect 57 0 50 0;
#X connect 58 0 51 0;
#X connect 59 0 53 0;
#X connect 60 0 54 0;
#X connect 61 0 55 0;
#X connect 65 0 72 0;
#X connect 65 0 73 0;
#X connect 65 0 74 0;
#X connect 66 0 69 1;
#X connect 67 0 70 1;
#X connect 68 0 71 1;
#X connect 69 0 62 0;
#X connect 70 0 63 0;
#X connect 71 0 64 0;
#X connect 72 0 68 0;
#X connect 73 0 66 0;
#X connect 74 0 67 0;
#X connect 75 0 76 0;
#X connect 76 0 77 0;
#X connect 77 0 78 0;
#X restore 13 13 pd processing;
#N canvas 749 23 414 624 input 0;
#X obj 13 11 adc~;
#X obj 13 77 env~;
#X floatatom 13 325 5 0 0 0 - - -, f 5;
#X obj 13 364 vu 15 120 empty empty -1 -8 0 10 -66577 -1 1 0;
#X obj 13 262 snapshot~;
#X obj 13 218 clip -0 16;
#N canvas 271 273 450 392 scale 0;
#X obj 17 12 inlet;
#X obj 17 43 / 127;
#X obj 17 78 *;
#X obj 17 147 outlet;
#X floatatom 72 79 5 0 0 0 - - -, f 5;
#X obj 72 19 loadbang;
#X msg 72 47 60;
#X obj 27 114 - 8;
#X msg 116 46 127;
#X connect 0 0 1 0;
#X connect 1 0 2 0;
#X connect 2 0 3 0;
#X connect 4 0 2 1;
#X connect 5 0 6 0;
#X connect 6 0 2 1;
#X connect 8 0 2 1;
#X restore 13 165 pd scale;
#X floatatom 13 192 5 0 0 0 - - -, f 5;
#X floatatom 13 137 5 0 0 0 - - -, f 5;
#X obj 23 294 s sig;
#X obj 13 104 - 30;
#X floatatom 119 325 5 0 0 0 - - -, f 5;
#X obj 119 364 vu 15 120 empty empty -1 -8 0 10 -66577 -1 1 0;
#X obj 119 262 snapshot~;
#X obj 119 218 clip -0 16;
#N canvas 78 280 450 369 scale 0;
#X obj 17 12 inlet;
#X obj 17 43 / 127;
#X obj 17 78 *;
#X obj 17 147 outlet;
#X floatatom 72 79 5 0 0 0 - - -, f 5;
#X obj 72 19 loadbang;
#X msg 72 47 60;
#X obj 27 114 - 8;
#X msg 114 46 127;
#X connect 0 0 1 0;
#X connect 1 0 2 0;
#X connect 2 0 3 0;
#X connect 4 0 2 1;
#X connect 5 0 6 0;
#X connect 6 0 2 1;
#X connect 8 0 2 1;
#X restore 119 165 pd scale;
#X floatatom 119 192 5 0 0 0 - - -, f 5;
#X obj 119 79 env~;
#X floatatom 119 139 5 0 0 0 - - -, f 5;
#X obj 119 51 lop~ 5;
#X obj 135 293 s siglo;
#X floatatom 220 325 5 0 0 0 - - -, f 5;
#X obj 220 364 vu 15 120 empty empty -1 -8 0 10 -66577 -1 1 0;
#X obj 220 262 snapshot~;
#X obj 220 218 clip -0 16;
#N canvas 78 280 450 369 scale 0;
#X obj 17 12 inlet;
#X obj 17 43 / 127;
#X obj 17 78 *;
#X obj 17 147 outlet;
#X floatatom 72 79 5 0 0 0 - - -, f 5;
#X obj 72 19 loadbang;
#X msg 72 47 60;
#X obj 27 114 - 8;
#X msg 112 47 127;
#X connect 0 0 1 0;
#X connect 1 0 2 0;
#X connect 2 0 3 0;
#X connect 4 0 2 1;
#X connect 5 0 6 0;
#X connect 6 0 2 1;
#X connect 8 0 2 1;
#X restore 220 165 pd scale;
#X floatatom 220 192 5 0 0 0 - - -, f 5;
#X obj 220 79 env~;
#X floatatom 220 139 5 0 0 0 - - -, f 5;
#X obj 236 293 s sighi;
#X obj 220 51 hip~ 1000;
#X obj 318 228 r update;
#X obj 220 107 - 20;
#X connect 0 0 1 0;
#X connect 0 0 19 0;
#X connect 0 0 30 0;
#X connect 1 0 10 0;
#X connect 2 0 3 0;
#X connect 4 0 2 0;
#X connect 4 0 9 0;
#X connect 5 0 4 0;
#X connect 6 0 7 0;
#X connect 7 0 5 0;
#X connect 8 0 6 0;
#X connect 10 0 8 0;
#X connect 11 0 12 0;
#X connect 13 0 11 0;
#X connect 13 0 20 0;
#X connect 14 0 13 0;
#X connect 15 0 16 0;
#X connect 16 0 14 0;
#X connect 17 0 18 0;
#X connect 18 0 15 0;
#X connect 19 0 17 0;
#X connect 21 0 22 0;
#X connect 23 0 21 0;
#X connect 23 0 29 0;
#X connect 24 0 23 0;
#X connect 25 0 26 0;
#X connect 26 0 24 0;
#X connect 27 0 32 0;
#X connect 28 0 25 0;
#X connect 30 0 27 0;
#X connect 31 0 23 0;
#X connect 31 0 13 0;
#X connect 31 0 4 0;
#X connect 32 0 28 0;
#X restore 13 65 pd input;
#X obj 178 43 vsl 40 128 0 16 0 0 empty full empty 0 -9 0 10 -262144
-1 -1 2349 1;
#X obj 227 43 vsl 40 128 0 1 0 0 empty data1 empty 0 -9 0 10 -262144
-1 -1 4913 1;
#N canvas 644 23 450 323 scaleshit 0;
#X msg 20 68 16;
#X obj 20 15 tgl 15 0 empty empty empty 17 7 0 10 -262144 -1 -1 0 1
;
#X obj 61 68 r full;
#X floatatom 19 188 5 0 0 0 - - -, f 5;
#X obj 19 222 s stupid;
#X obj 19 156 /;
#X obj 20 37 metro 100;
#X connect 0 0 5 1;
#X connect 1 0 6 0;
#X connect 2 0 5 0;
#X connect 3 0 4 0;
#X connect 5 0 3 0;
#X connect 6 0 0 0;
#X restore 251 708 pd scaleshit;
#N canvas 0 22 450 300 updater 0;
#X obj 75 -28 tgl 15 0 empty empty empty 17 7 0 10 -262144 -1 -1 1
1;
#X obj 75 93 metro 30;
#X obj 75 -66 loadbang;
#X obj 75 126 s update;
#X obj 112 -30 s L;
#X obj 171 -52 vsl 15 128 0 100 0 0 empty update empty 0 -9 0 10 -262144
-1 -1 0 1;
#X floatatom 171 91 5 0 0 0 - - -, f 5;
#X connect 0 0 1 0;
#X connect 1 0 3 0;
#X connect 2 0 0 0;
#X connect 2 0 4 0;
#X connect 5 0 6 0;
#X connect 5 0 1 1;
#X restore 13 39 pd updater;
#X obj 13 124 tgl 28 0 visualize empty empty 17 7 0 10 -262144 -1 -1
1 1;
#X obj 36 367 vsl 15 128 16 0 0 0 basecut bc empty 0 -9 0 10 -262144
-1 -1 7800 1;
#X text 18 506 Base Cut;
#N canvas 0 22 450 300 a 0;
#X obj 15 14 r L;
#X obj 15 79 outlet;
#X msg 15 47 6;
#X connect 0 0 2 0;
#X connect 2 0 1 0;
#X restore 36 339 pd a;
#N canvas 234 32 450 323 b 0;
#X msg 89 51 1645;
#X obj 89 14 r L;
#X obj 19 50 r update;
#X obj 19 90 outlet;
#X connect 0 0 3 0;
#X connect 1 0 0 0;
#X connect 2 0 3 0;
#X restore 208 338 pd b;
#X text 179 13 Audio;
#X text 230 13 Data;
#X obj 183 484 tgl 15 0 flip1 f1 empty 17 7 0 10 -262144 -1 -1 0 127
;
#X obj 391 366 vsl 15 128 0 6000 0 0 lospd lsk empty 0 -9 0 10 -262144
-1 -1 0 1;
#X floatatom 410 480 5 0 0 0 - lospd -, f 5;
#X obj 470 366 vsl 15 128 1 4 0 0 scale2 s2k empty 0 -9 0 10 -262144
-1 -1 4800 1;
#X obj 366 42 vsl 40 128 0 16 0 0 empty lo empty 0 -9 0 10 -262144
-1 -1 0 1;
#X obj 415 42 vsl 40 128 0 1 0 0 empty data2 empty 0 -9 0 10 -262144
-1 -1 127 1;
#X text 367 12 Audio;
#X text 418 12 Data;
#X obj 367 482 tgl 15 0 flip2 f2 empty 17 7 0 10 -262144 -1 -1 0 127
;
#N canvas 0 22 450 300 c 0;
#X msg 89 51 1645;
#X obj 89 14 r L;
#X obj 19 50 r update;
#X obj 19 90 outlet;
#X connect 0 0 3 0;
#X connect 1 0 0 0;
#X connect 2 0 3 0;
#X restore 391 338 pd c;
#X obj 581 364 vsl 15 128 0 6000 0 0 hispd hsk empty 0 -9 0 10 -262144
-1 -1 1800 1;
#X floatatom 600 478 5 0 0 0 - hispd -, f 5;
#X obj 660 364 vsl 15 128 1 4 0 0 scale3 s3k empty 0 -9 0 10 -262144
-1 -1 0 1;
#X obj 555 42 vsl 40 128 0 16 0 0 empty hi empty 0 -9 0 10 -262144
-1 -1 1359 1;
#X obj 604 42 vsl 40 128 0 1 0 0 empty data3 empty 0 -9 0 10 -262144
-1 -1 2259 1;
#X text 556 12 Audio;
#X text 607 12 Data;
#X obj 557 480 tgl 15 0 flip3 f3 empty 17 7 0 10 -262144 -1 -1 0 127
;
#N canvas 0 22 450 300 d 0;
#X msg 89 51 1645;
#X obj 89 14 r L;
#X obj 19 50 r update;
#X obj 19 90 outlet;
#X connect 0 0 3 0;
#X connect 1 0 0 0;
#X connect 2 0 3 0;
#X restore 581 336 pd d;
#N canvas 0 22 450 300 full 0;
#X obj 55 -134 line;
#X floatatom 55 -99 5 0 0 0 - - -, f 5;
#X obj 96 100 r offs;
#X floatatom 55 133 5 0 0 0 - - -, f 5;
#X obj 55 100 +;
#X floatatom 55 70 5 0 0 0 - - -, f 5;
#N canvas 728 359 361 415 scale 0;
#X obj 17 12 inlet;
#X obj 17 108 *;
#X obj 58 108 r scale;
#X obj 17 307 outlet;
#X obj 17 44 / 16;
#X floatatom 17 75 5 0 0 0 - - -, f 5;
#X obj 69 50 r L;
#X msg 69 77 1;
#X connect 0 0 4 0;
#X connect 1 0 3 0;
#X connect 2 0 1 1;
#X connect 4 0 5 0;
#X connect 5 0 1 0;
#X connect 6 0 7 0;
#X connect 7 0 1 1;
#X restore 55 39 pd scale;
#X obj 55 -169 r sig;
#X obj 55 206 s actual1;
#X obj 99 4 s full;
#X obj 138 -44 tgl 15 0 empty visualize empty 17 7 0 10 -262144 -1
-1 1 1;
#X obj 99 -23 spigot;
#N canvas 774 28 450 323 basecut 0;
#X obj 17 23 inlet;
#X obj 17 201 outlet;
#X obj 17 87 -;
#X floatatom 17 117 5 0 0 0 - - -, f 5;
#X obj 35 53 r basecut;
#X floatatom 54 88 5 0 0 0 - - -, f 5;
#X obj 35 144 r bc1;
#X obj 17 172 +;
#X connect 0 0 2 0;
#X connect 2 0 3 0;
#X connect 3 0 7 0;
#X connect 4 0 2 1;
#X connect 4 0 5 0;
#X connect 6 0 7 1;
#X connect 7 0 1 0;
#X restore 55 -65 pd basecut;
#N canvas 757 277 450 323 flip 0;
#X obj 56 16 inlet;
#X msg 86 90 1;
#X obj 112 125 -;
#X floatatom 112 157 5 0 0 0 - - -, f 5;
#X obj 86 57 t b f;
#X floatatom 56 157 5 0 0 0 - - -, f 5;
#X obj 168 109 r flip1;
#X obj 168 140 tgl 15 0 empty empty empty 17 7 0 10 -262144 -1 -1 0
127;
#X floatatom 168 166 5 0 0 0 - - -, f 5;
#X obj 56 290 outlet;
#X obj 74 202 == 0;
#X obj 130 202 == 1;
#X obj 56 231 spigot;
#X floatatom 56 260 5 0 0 0 - - -, f 5;
#X obj 112 231 spigot;
#X obj 13 162 r L;
#X connect 0 0 4 0;
#X connect 0 0 5 0;
#X connect 1 0 2 0;
#X connect 2 0 3 0;
#X connect 3 0 14 0;
#X connect 4 0 1 0;
#X connect 4 1 2 1;
#X connect 5 0 12 0;
#X connect 6 0 7 0;
#X connect 7 0 8 0;
#X connect 8 0 10 0;
#X connect 8 0 11 0;
#X connect 10 0 12 1;
#X connect 11 0 14 1;
#X connect 12 0 13 0;
#X connect 13 0 9 0;
#X connect 14 0 13 0;
#X connect 15 0 10 0;
#X restore 55 170 pd flip;
#X obj 107 -168 r fullspd;
#X connect 0 0 1 0;
#X connect 1 0 12 0;
#X connect 2 0 4 1;
#X connect 3 0 13 0;
#X connect 4 0 3 0;
#X connect 5 0 4 0;
#X connect 6 0 5 0;
#X connect 7 0 0 0;
#X connect 10 0 11 1;
#X connect 11 0 9 0;
#X connect 12 0 11 0;
#X connect 12 0 6 0;
#X connect 13 0 8 0;
#X connect 14 0 0 1;
#X restore 267 338 pd full;
#N canvas 0 22 450 300 lo 0;
#X obj 111 -337 line;
#X floatatom 111 -302 5 0 0 0 - - -, f 5;
#X floatatom 111 -70 5 0 0 0 - - -, f 5;
#X obj 111 -103 +;
#X floatatom 111 -133 5 0 0 0 - - -, f 5;
#N canvas 728 359 361 415 scale 0;
#X obj 17 12 inlet;
#X obj 17 108 *;
#X obj 17 307 outlet;
#X obj 17 44 / 16;
#X floatatom 17 75 5 0 0 0 - - -, f 5;
#X obj 58 108 r scale2;
#X obj 63 27 r L;
#X msg 63 74 1;
#X obj 63 52 bng 15 250 50 0 empty empty empty 17 7 0 10 -262144 -1
-1;
#X obj 108 39 loadbang;
#X connect 0 0 3 0;
#X connect 1 0 2 0;
#X connect 3 0 4 0;
#X connect 4 0 1 0;
#X connect 5 0 1 1;
#X connect 6 0 8 0;
#X connect 7 0 1 1;
#X connect 8 0 7 0;
#X connect 9 0 7 0;
#X restore 111 -164 pd scale;
#X obj 194 -247 tgl 15 0 empty visualize empty 17 7 0 10 -262144 -1
-1 1 1;
#X obj 155 -226 spigot;
#N canvas 774 28 450 323 basecut 0;
#X obj 17 23 inlet;
#X obj 17 199 outlet;
#X obj 17 87 -;
#X floatatom 17 117 5 0 0 0 - - -, f 5;
#X obj 35 53 r basecut;
#X obj 17 171 +;
#X obj 35 143 r bc2;
#X connect 0 0 2 0;
#X connect 2 0 3 0;
#X connect 3 0 5 0;
#X connect 4 0 2 1;
#X connect 5 0 1 0;
#X connect 6 0 5 1;
#X restore 111 -268 pd basecut;
#N canvas 958 217 450 346 flip 0;
#X obj 56 16 inlet;
#X msg 86 90 1;
#X obj 112 125 -;
#X floatatom 112 157 5 0 0 0 - - -, f 5;
#X obj 86 57 t b f;
#X floatatom 56 157 5 0 0 0 - - -, f 5;
#X obj 168 140 tgl 15 0 empty empty empty 17 7 0 10 -262144 -1 -1 0
127;
#X floatatom 168 166 5 0 0 0 - - -, f 5;
#X obj 56 290 outlet;
#X obj 74 202 == 0;
#X obj 130 202 == 1;
#X obj 56 231 spigot;
#X floatatom 56 260 5 0 0 0 - - -, f 5;
#X obj 112 231 spigot;
#X obj 168 109 r flip2;
#X obj 11 164 r L;
#X connect 0 0 4 0;
#X connect 0 0 5 0;
#X connect 1 0 2 0;
#X connect 2 0 3 0;
#X connect 3 0 13 0;
#X connect 4 0 1 0;
#X connect 4 1 2 1;
#X connect 5 0 11 0;
#X connect 6 0 7 0;
#X connect 7 0 9 0;
#X connect 7 0 10 0;
#X connect 9 0 11 1;
#X connect 10 0 13 1;
#X connect 11 0 12 0;
#X connect 12 0 8 0;
#X connect 13 0 12 0;
#X connect 14 0 6 0;
#X connect 15 0 9 0;
#X restore 111 -33 pd flip;
#X obj 111 -372 r siglo;
#X obj 155 -199 s lo;
#X obj 152 -103 r offs2;
#X obj 111 2 s actuallo;
#X obj 172 -372 r lospd;
#X connect 0 0 1 0;
#X connect 1 0 8 0;
#X connect 2 0 9 0;
#X connect 3 0 2 0;
#X connect 4 0 3 0;
#X connect 5 0 4 0;
#X connect 6 0 7 1;
#X connect 7 0 11 0;
#X connect 8 0 7 0;
#X connect 8 0 5 0;
#X connect 9 0 13 0;
#X connect 10 0 0 0;
#X connect 12 0 3 1;
#X connect 14 0 0 1;
#X restore 457 338 pd lo;
#N canvas 0 22 450 300 hi 0;
#X obj 47 -243 line;
#X floatatom 47 -208 5 0 0 0 - - -, f 5;
#X floatatom 47 24 5 0 0 0 - - -, f 5;
#X obj 47 -9 +;
#X floatatom 47 -39 5 0 0 0 - - -, f 5;
#N canvas 728 359 361 415 scale 0;
#X obj 17 12 inlet;
#X obj 17 108 *;
#X obj 17 307 outlet;
#X obj 17 44 / 16;
#X floatatom 17 75 5 0 0 0 - - -, f 5;
#X obj 58 108 r scale3;
#X obj 65 26 r L;
#X msg 65 75 1;
#X obj 65 53 bng 15 250 50 0 empty empty empty 17 7 0 10 -262144 -1
-1;
#X obj 102 46 loadbang;
#X connect 0 0 3 0;
#X connect 1 0 2 0;
#X connect 3 0 4 0;
#X connect 4 0 1 0;
#X connect 5 0 1 1;
#X connect 6 0 8 0;
#X connect 7 0 1 1;
#X connect 8 0 7 0;
#X connect 9 0 7 0;
#X restore 47 -70 pd scale;
#X obj 130 -153 tgl 15 0 empty visualize empty 17 7 0 10 -262144 -1
-1 1 1;
#X obj 91 -132 spigot;
#N canvas 774 28 450 323 basecut 0;
#X obj 17 23 inlet;
#X obj 17 199 outlet;
#X obj 17 87 -;
#X floatatom 17 117 5 0 0 0 - - -, f 5;
#X obj 35 53 r basecut;
#X obj 17 172 +;
#X obj 35 144 r bc3;
#X connect 0 0 2 0;
#X connect 2 0 3 0;
#X connect 3 0 5 0;
#X connect 4 0 2 1;
#X connect 5 0 1 0;
#X connect 6 0 5 1;
#X restore 47 -174 pd basecut;
#N canvas 540 246 450 369 flip 0;
#X obj 56 16 inlet;
#X msg 86 90 1;
#X obj 112 125 -;
#X floatatom 112 157 5 0 0 0 - - -, f 5;
#X obj 86 57 t b f;
#X floatatom 56 157 5 0 0 0 - - -, f 5;
#X obj 168 140 tgl 15 0 empty empty empty 17 7 0 10 -262144 -1 -1 0
127;
#X floatatom 168 166 5 0 0 0 - - -, f 5;
#X obj 56 290 outlet;
#X obj 74 202 == 0;
#X obj 130 202 == 1;
#X obj 56 231 spigot;
#X floatatom 56 260 5 0 0 0 - - -, f 5;
#X obj 112 231 spigot;
#X obj 168 109 r flip3;
#X obj 12 162 r L;
#X connect 0 0 4 0;
#X connect 0 0 5 0;
#X connect 1 0 2 0;
#X connect 2 0 3 0;
#X connect 3 0 13 0;
#X connect 4 0 1 0;
#X connect 4 1 2 1;
#X connect 5 0 11 0;
#X connect 6 0 7 0;
#X connect 7 0 9 0;
#X connect 7 0 10 0;
#X connect 9 0 11 1;
#X connect 10 0 13 1;
#X connect 11 0 12 0;
#X connect 12 0 8 0;
#X connect 13 0 12 0;
#X connect 14 0 6 0;
#X connect 15 0 9 0;
#X restore 47 61 pd flip;
#X obj 47 -278 r sighi;
#X obj 91 -105 s hi;
#X obj 88 -9 r offs3;
#X obj 47 96 s actualhi;
#X obj 109 -278 r hispd;
#X connect 0 0 1 0;
#X connect 1 0 8 0;
#X connect 2 0 9 0;
#X connect 3 0 2 0;
#X connect 4 0 3 0;
#X connect 5 0 4 0;
#X connect 6 0 7 1;
#X connect 7 0 11 0;
#X connect 8 0 7 0;
#X connect 8 0 5 0;
#X connect 9 0 13 0;
#X connect 10 0 0 0;
#X connect 12 0 3 1;
#X connect 14 0 0 1;
#X restore 647 336 pd hi;
#N canvas 0 22 450 300 b2 0;
#X obj 13 9 r actual1;
#X obj 106 50 tgl 15 0 empty visualize empty 17 7 0 10 -262144 -1 -1
1 1;
#X obj 67 71 spigot;
#X obj 67 98 s data1;
#X obj 13 36 clip 0.01 1;
#X obj 13 132 outlet;
#X connect 0 0 4 0;
#X connect 1 0 2 1;
#X connect 2 0 3 0;
#X connect 4 0 2 0;
#X connect 4 0 5 0;
#X restore 179 185 pd b2;
#N canvas 0 22 450 300 c2 0;
#X obj 17 10 r actuallo;
#X obj 110 49 tgl 15 0 empty visualize empty 17 7 0 10 -262144 -1 -1
1 1;
#X obj 71 70 spigot;
#X obj 17 35 clip 0.01 1;
#X obj 71 97 s data2;
#X obj 17 130 outlet;
#X connect 0 0 3 0;
#X connect 1 0 2 1;
#X connect 2 0 4 0;
#X connect 3 0 2 0;
#X connect 3 0 5 0;
#X restore 367 184 pd c2;
#N canvas 0 22 450 300 d2 0;
#X obj 18 14 r actualhi;
#X obj 111 53 tgl 15 0 empty visualize empty 17 7 0 10 -262144 -1 -1
1 1;
#X obj 72 74 spigot;
#X obj 18 39 clip 0.01 1;
#X obj 72 101 s data3;
#X obj 18 126 outlet;
#X connect 0 0 3 0;
#X connect 1 0 2 1;
#X connect 2 0 4 0;
#X connect 3 0 2 0;
#X connect 3 0 5 0;
#X restore 556 184 pd d2;
#X obj 179 268 s fulld;
#X obj 367 267 s lod;
#X obj 556 267 s hid;
#X obj 108 366 vsl 15 128 0 2.99 0 0 rotator rknob empty 0 -9 0 10
-262144 -1 -1 0 1;
#X floatatom 129 480 5 0 0 0 - datarot -, f 5;
#X text 107 505 Rotator;
#X text 184 458 F;
#X text 368 456 F;
#X text 558 454 F;
#X text 274 504 Scale;
#X text 458 504 Scale;
#X text 648 502 Scale;
#X text 197 504 Speed;
#X text 380 504 Speed;
#X text 570 502 Speed;
#N canvas 433 23 737 431 midi 0;
#X obj 48 6 ctlin 0;
#X floatatom 48 36 5 0 0 0 - - -, f 5;
#X floatatom 48 146 5 0 0 0 - - -, f 5;
#X obj 48 118 / 7.9375;
#X obj 48 173 s bc;
#X obj 116 6 ctlin 1;
#X floatatom 116 36 5 0 0 0 - - -, f 5;
#X floatatom 116 91 5 0 0 0 - - -, f 5;
#X obj 116 63 / 42.3347;
#X obj 116 118 s rknob;
#X floatatom 191 36 5 0 0 0 - - -, f 5;
#X floatatom 191 91 5 0 0 0 - - -, f 5;
#X floatatom 266 36 5 0 0 0 - - -, f 5;
#X floatatom 266 119 5 0 0 0 - - -, f 5;
#X obj 191 6 ctlin 2;
#X obj 191 63 * 47.2441;
#X obj 191 118 s fsk;
#X obj 266 146 s sk;
#X obj 266 63 / 42.3333;
#X obj 266 91 + 1;
#X floatatom 340 36 5 0 0 0 - - -, f 5;
#X floatatom 340 91 5 0 0 0 - - -, f 5;
#X floatatom 415 36 5 0 0 0 - - -, f 5;
#X floatatom 415 119 5 0 0 0 - - -, f 5;
#X obj 340 63 * 47.2441;
#X obj 415 63 / 42.3333;
#X obj 415 91 + 1;
#X obj 340 118 s lsk;
#X obj 415 146 s s2k;
#X floatatom 490 36 5 0 0 0 - - -, f 5;
#X floatatom 490 91 5 0 0 0 - - -, f 5;
#X floatatom 565 36 5 0 0 0 - - -, f 5;
#X floatatom 565 119 5 0 0 0 - - -, f 5;
#X obj 490 63 * 47.2441;
#X obj 565 63 / 42.3333;
#X obj 565 91 + 1;
#X obj 565 6 ctlin 7;
#X obj 490 118 s hsk;
#X obj 565 146 s s3k;
#X obj 7 313 s f1;
#X obj 72 313 s f2;
#X obj 137 313 s f3;
#X obj 7 244 ctlin 66;
#X obj 72 244 ctlin 68;
#X obj 137 244 ctlin 70;
#X floatatom 205 271 5 0 0 0 - - -, f 5;
#X floatatom 205 326 5 0 0 0 - - -, f 5;
#X obj 205 353 s offs;
#X obj 205 298 * 0.007874;
#X floatatom 284 271 5 0 0 0 - - -, f 5;
#X floatatom 284 326 5 0 0 0 - - -, f 5;
#X obj 284 298 * 0.007874;
#X floatatom 363 271 5 0 0 0 - - -, f 5;
#X floatatom 363 326 5 0 0 0 - - -, f 5;
#X obj 363 298 * 0.007874;
#X obj 284 353 s offs2;
#X obj 363 353 s offs3;
#X obj 415 6 ctlin 6;
#X obj 266 6 ctlin 5;
#X obj 490 6 ctlin 4;
#X obj 340 6 ctlin 3;
#X obj 205 244 ctlin 18;
#X obj 284 244 ctlin 19;
#X obj 363 244 ctlin 20;
#X floatatom 443 271 5 0 0 0 - - -, f 5;
#X floatatom 443 365 5 0 0 0 - - -, f 5;
#X floatatom 522 271 5 0 0 0 - - -, f 5;
#X floatatom 522 365 5 0 0 0 - - -, f 5;
#X floatatom 601 271 5 0 0 0 - - -, f 5;
#X floatatom 601 365 5 0 0 0 - - -, f 5;
#X obj 443 244 ctlin 21;
#X obj 522 244 ctlin 22;
#X obj 601 244 ctlin 23;
#X obj 443 298 / 6.35;
#X obj 522 298 / 6.35;
#X obj 601 298 / 6.35;
#X obj 443 327 - 10;
#X obj 522 327 - 10;
#X obj 601 327 - 10;
#X msg 661 331 0;
#X obj 661 304 loadbang;
#X msg 12 36 127;
#X obj 12 63 -;
#X floatatom 48 92 5 0 0 0 - - -, f 5;
#X obj 48 64 t b f;
#X msg 646 93 2.5;
#X obj 646 65 loadbang;
#X obj 443 392 s bck1;
#X obj 522 392 s bck2;
#X obj 601 392 s bck3;
#X connect 0 0 1 0;
#X connect 1 0 84 0;
#X connect 2 0 4 0;
#X connect 3 0 2 0;
#X connect 5 0 6 0;
#X connect 6 0 8 0;
#X connect 7 0 9 0;
#X connect 8 0 7 0;
#X connect 10 0 15 0;
#X connect 11 0 16 0;
#X connect 12 0 18 0;
#X connect 13 0 17 0;
#X connect 14 0 10 0;
#X connect 15 0 11 0;
#X connect 18 0 19 0;
#X connect 19 0 13 0;
#X connect 20 0 24 0;
#X connect 21 0 27 0;
#X connect 22 0 25 0;
#X connect 23 0 28 0;
#X connect 24 0 21 0;
#X connect 25 0 26 0;
#X connect 26 0 23 0;
#X connect 29 0 33 0;
#X connect 30 0 37 0;
#X connect 31 0 34 0;
#X connect 32 0 38 0;
#X connect 33 0 30 0;
#X connect 34 0 35 0;
#X connect 35 0 32 0;
#X connect 36 0 31 0;
#X connect 42 0 39 0;
#X connect 43 0 40 0;
#X connect 44 0 41 0;
#X connect 45 0 48 0;
#X connect 46 0 47 0;
#X connect 48 0 46 0;
#X connect 49 0 51 0;
#X connect 50 0 55 0;
#X connect 51 0 50 0;
#X connect 52 0 54 0;
#X connect 53 0 56 0;
#X connect 54 0 53 0;
#X connect 57 0 22 0;
#X connect 58 0 12 0;
#X connect 59 0 29 0;
#X connect 60 0 20 0;
#X connect 61 0 45 0;
#X connect 62 0 49 0;
#X connect 63 0 52 0;
#X connect 64 0 73 0;
#X connect 65 0 87 0;
#X connect 66 0 74 0;
#X connect 67 0 88 0;
#X connect 68 0 75 0;
#X connect 69 0 89 0;
#X connect 70 0 64 0;
#X connect 71 0 66 0;
#X connect 72 0 68 0;
#X connect 73 0 76 0;
#X connect 74 0 77 0;
#X connect 75 0 78 0;
#X connect 76 0 65 0;
#X connect 77 0 67 0;
#X connect 78 0 69 0;
#X connect 79 0 69 0;
#X connect 79 0 67 0;
#X connect 79 0 65 0;
#X connect 80 0 79 0;
#X connect 81 0 82 0;
#X connect 82 0 83 0;
#X connect 83 0 3 0;
#X connect 84 0 81 0;
#X connect 84 1 82 1;
#X connect 85 0 32 0;
#X connect 85 0 23 0;
#X connect 85 0 13 0;
#X connect 86 0 85 0;
#X restore 13 91 pd midi;
#X obj 367 214 nbx 5 42 -1e+37 1e+37 0 0 empty empty empty 0 -8 0 33
-262144 -1 -1 0.01 256 0;
#X obj 556 214 nbx 5 42 -1e+37 1e+37 0 0 empty empty empty 0 -8 0 33
-262144 -1 -1 0.177862 256 0;
#X obj 582 309 hsl 90 15 -10 10 0 0 bc3 bck3 empty -2 -8 0 10 -262144
-1 -1 2663 1;
#X obj 391 309 hsl 90 15 -10 10 0 0 bc2 bck2 empty -2 -8 0 10 -262144
-1 -1 5676 1;
#X obj 208 309 hsl 90 15 -10 10 0 0 bc1 bck1 empty -2 -8 0 10 -262144
-1 -1 4415 1;
#X connect 3 0 42 0;
#X connect 13 0 11 0;
#X connect 14 0 0 0;
#X connect 26 0 18 0;
#X connect 35 0 27 0;
#X connect 39 0 3 0;
#X connect 40 0 58 0;
#X connect 41 0 59 0;
#X connect 58 0 43 0;
#X connect 59 0 44 0;
